<?xml version="1.0" encoding="UTF-8" standalone="no"?>
<svg
   xmlns:dc="http://purl.org/dc/elements/1.1/"
   xmlns:cc="http://creativecommons.org/ns#"
   xmlns:rdf="http://www.w3.org/1999/02/22-rdf-syntax-ns#"
   xmlns:svg="http://www.w3.org/2000/svg"
   xmlns="http://www.w3.org/2000/svg"
   xmlns:sodipodi="http://sodipodi.sourceforge.net/DTD/sodipodi-0.dtd"
   xmlns:inkscape="http://www.inkscape.org/namespaces/inkscape"
   height="606.79999"
   width="944.96338"
   id="svg4589"
   viewBox="-161 -410 944.96338 606.79999"
   version="1.1"
   inkscape:version="0.91 r13725"
   sodipodi:docname="abeceda_convertor.svg">
  <sodipodi:namedview
     pagecolor="#ffffff"
     bordercolor="#666666"
     borderopacity="1"
     objecttolerance="10"
     gridtolerance="10"
     guidetolerance="10"
     inkscape:pageopacity="0"
     inkscape:pageshadow="2"
     inkscape:window-width="1311"
     inkscape:window-height="719"
     id="namedview12"
     showgrid="false"
     inkscape:zoom="0.32"
     inkscape:cx="668.69088"
     inkscape:cy="318.88151"
     inkscape:window-x="55"
     inkscape:window-y="27"
     inkscape:window-maximized="1"
     inkscape:current-layer="svg4589" />
  <metadata
     id="metadata4595">
    <rdf:RDF>
      <cc:Work
         rdf:about="">
        <dc:format>image/svg+xml</dc:format>
        <dc:type
           rdf:resource="http://purl.org/dc/dcmitype/StillImage" />
        <dc:title />
      </cc:Work>
    </rdf:RDF>
  </metadata>
  <defs
     id="defs4593" />
  <g
     id="g4587"
     transform="matrix(1,0,0,-1,-0.17948718,337)"
     style="stroke:#000000;stroke-opacity:1;stroke-width:2.3;stroke-miterlimit:4;stroke-dasharray:none;fill:#ffffff;fill-opacity:1">
    <path
       inkscape:connector-curvature="0"
       id="path4585"
       d="m 99,253 q 0,-16 -2,-28.5 -2,-12.5 4,-28.5 12,-25 32.5,-38 20.5,-13 45.5,-16 25,-3 50.5,-1 25.5,2 47.5,8 11,2 19,3 8,1 18,5 62,21 113,57.5 51,36.5 94,82.5 43,46 82,98.5 39,52.5 76,101.5 20,29 39.5,55.5 19.5,26.5 42.5,55.5 6,8 16,19 10,11 6,22 -4,18 -18.5,9 Q 750,649 744,640 701,587 656,528 621,479 584.5,430.5 548,382 507,335 472,296 433,262.5 394,229 347,206 290,178 228,171 q -14,-2 -27.5,-3 -13.5,-1 -27.5,3 -8,2 -21,11 -8,6 -14,14 -6,8 -8,18 -2,9 0,16 2,7 4,15 l 12,49 q 23,82 46.5,162 23.5,80 43.5,162 l 19,86 q 2,8 3,17 1,9 -5,18 -6,8 -17,8 l -37,0 Q 154,747 111,736.5 68,726 32,700 3,677 -19.5,648.5 -42,620 -58,589 q -70,-119 -94,-254 -6,-35 -8.5,-74.5 -2.5,-39.5 14.5,-74.5 14,-31 40.5,-39 26.5,-8 57.5,-4 35,6 66.5,24.5 Q 50,186 75,214 q 8,11 15,20 7,9 11,19 z M 226,714 Q 222,698 218,680.5 214,663 210,647 199,606 187,564 175,522 165,481 152,434 135,387.5 118,341 93,298 77,272 58.5,248.5 40,225 15,206 q -34,-28 -77,-35 -29,-4 -45,15 -10,10 -12.5,24.5 -2.5,14.5 -4.5,26.5 -4,35 1.5,70.5 5.5,35.5 15.5,70.5 14,58 36.5,113 Q -48,546 -15,595 3,624 24.5,646.5 46,669 75,685 q 34,19 72,24 38,5 77,5 z"
       style="fill:#ffffff;stroke:#000000;stroke-opacity:1;stroke-width:2.3;stroke-miterlimit:4;stroke-dasharray:none;fill-opacity:1" />
  </g>
  <g
     style="stroke-width:6.69466297;stroke:#000000;stroke-opacity:1;stroke-miterlimit:4;stroke-dasharray:none;fill:#ffffff;fill-opacity:1"
     id="g4599"
     transform="matrix(0.34355725,0,0,-0.34355725,242.29142,51.2746)">
    <path
       inkscape:connector-curvature="0"
       id="path4597"
       d="M 11,634 Q -9,556 -31.5,480.5 -54,405 -77,327 -81,311 -85,296.5 -89,282 -93,266 -97,247 -100.5,229.5 -104,212 -95,196 q 6,-16 22,-31 41,-34 88,-24 47,10 82,45 28,28 50.5,63 22.5,35 41.5,70 29,59 52.5,121.5 Q 265,503 275,569 q 90,-21 182,-23 92,-2 180,27 27,8 51.5,19.5 24.5,11.5 45.5,29.5 6,6 13,17.5 7,11.5 -3,21.5 -8,6 -16.5,1 Q 719,657 713,651 693,632 669.5,621 646,610 619,601 560,583 493,580 q -67,-3 -128,5 -23,4 -42,9 -19,5 -42,10 6,30 6,61 0,12 -1,26.5 -1,14.5 -4,26.5 -3,12 -12,21.5 -9,9.5 -24,11.5 -8,0 -12,-2 -12,-4 -16,-8 -17,-15 -23,-37.5 -6,-22.5 -6,-42.5 0,-21 8,-37 8,-14 20.5,-23.5 Q 230,591 244,585 238,565 233,544.5 228,524 222,503 207,456 188.5,409 170,362 146,317 134,294 119.5,271.5 105,249 86,229 64,204 35.5,185.5 7,167 -28,182 q -6,2 -18,10 -17,12 -19,26 -4,17 3.5,34.5 7.5,17.5 11.5,33.5 10,37 19,74 9,37 20,74 l 54,184 q 7,20 12,42.5 5,22.5 15,41.5 6,10 14.5,20.5 Q 93,733 101,743 l 55,74 q 41,57 78,115.5 37,58.5 70,119.5 24,47 45.5,94 21.5,47 21.5,101 0,22 -5,45.5 -5,23.5 -32,27.5 -10,2 -19,1 -9,-1 -20,-3 -41,-10 -69.5,-37.5 Q 197,1253 179,1216 154,1167 140.5,1113.5 127,1060 115,1007 103,954 88.5,899.5 74,845 58,792 54,773 48.5,751.5 43,730 33,714 27,704 19,694.5 11,685 2,675 -9,663 -11,653 -15,640 -6.5,636 2,632 13,634 Z m 84,160 q 10,51 24.5,100 14.5,49 26.5,101 12,53 24.5,105 12.5,52 36.5,99 13,27 32,49.5 19,22.5 48,32.5 8,4 18.5,7.5 10.5,3.5 18.5,-0.5 8,-5 9,-16 1,-11 1,-19 0,-51 -22,-101 -29,-63 -64,-122.5 Q 213,970 175,913 154,884 133.5,854.5 113,825 91,796 Z m -6,0 2,0 z M 250,618 q -10,4 -17,11 -7,7 -11,18 -4,8 -3,16 1,8 3,16 2,6 7,19.5 5,13.5 15,11.5 6,-2 7,-10 1,-8 1,-13 4,-18 2,-36.5 -2,-18.5 -4,-36.5 z"
       style="fill:#ffffff;stroke-width:6.69466297;stroke:#000000;stroke-opacity:1;stroke-miterlimit:4;stroke-dasharray:none;fill-opacity:1" />
  </g>
  <g
     style="stroke-width:9.5755815;stroke:#000000;stroke-opacity:1;stroke-miterlimit:4;stroke-dasharray:none;fill:#ffffff;fill-opacity:1"
     id="g4611"
     transform="matrix(0.24019429,0,0,-0.24019429,424.42622,-166.0844)">
    <path
       inkscape:connector-curvature="0"
       id="path4609"
       d="M 78,736 Q 46,725 22.5,704 -1,683 -23,655 q -56,-68 -96,-153 -40,-85 -40,-175 0,-55 22,-108.5 22,-53.5 79,-73.5 22,-8 44.5,-9 22.5,-1 44.5,1 52,4 91,14 61,18 114.5,49 53.5,31 102.5,71 49,40 92,85 43,45 82,92 30,37 61,75 31,38 62,74 6,9 14,16 8,7 12,17 4,12 -4,19 -14,10 -26.5,-4.5 Q 619,630 613,622 L 509,493 Q 494,477 481,459.5 468,442 451,425 408,376 357,329 306,282 249.5,245 193,208 128.5,185.5 64,163 -5,165 q -18,0 -37,6 -39,13 -58.5,46.5 -19.5,33.5 -23.5,70.5 -8,74 19.5,148.5 Q -77,511 -36,571 q 21,28 43,57 22,29 51,51 16,13 34.5,20 18.5,7 39.5,1 31,-10 41,-41 4,-6 4,-15 0,-6 4,-12 8,-14 20,-8 11,4 11,20 0,23 -11,43 -16,29 -43.5,40.5 Q 130,739 104,738 Z"
       style="fill:#ffffff;stroke:#000000;stroke-opacity:1;stroke-width:9.5755815;stroke-miterlimit:4;stroke-dasharray:none;fill-opacity:1" />
  </g>
</svg>
